<svg xmlns="http://www.w3.org/2000/svg"  viewBox="0 0 64 64"><defs fill="#55534E" /><path  d="m27,19c0-3.09,1.91-5,5-5s5,1.91,5,5-1.91,5-5,5-5-1.91-5-5Zm30,5c3.09,0,5-1.91,5-5s-1.91-5-5-5-5,1.91-5,5,1.91,5,5,5Zm-18,7c0-2.47-1.53-4-4-4h-6c-2.47,0-4,1.53-4,4v7h14v-7Zm-23,17h32v-6H16v6Zm44-21h-6c-2.11,0-3.53.71-4.8,2.4l-3.45,4.6h-2.75v4h4.75l4.25-5.67v15.67h12v-17c0-2.47-1.53-4-4-4Zm-53-3c3.09,0,5-1.91,5-5s-1.91-5-5-5-5,1.91-5,5,1.91,5,5,5Zm14,14v-4h-2.75l-3.45-4.6c-1.27-1.69-2.69-2.4-4.8-2.4h-6c-2.47,0-4,1.53-4,4v17h12v-15.67l4.25,5.67h4.75Z" fill="#55534E" /></svg>